<?xml version="1.0" encoding="utf-8"?>
<!-- Generator: Adobe Illustrator 16.0.0, SVG Export Plug-In . SVG Version: 6.00 Build 0)  -->
<!DOCTYPE svg PUBLIC "-//W3C//DTD SVG 1.1//EN" "http://www.w3.org/Graphics/SVG/1.1/DTD/svg11.dtd">
<svg version="1.1" id="Calque_1" xmlns="http://www.w3.org/2000/svg" xmlns:xlink="http://www.w3.org/1999/xlink" x="0px" y="0px"
	 width="960px" height="560px" viewBox="0 0 960 560" enable-background="new 0 0 960 560" xml:space="preserve">
<g>
	<path fill-rule="evenodd" clip-rule="evenodd" d="M591.857,425.113c0,2.658,0,4.228,0,5.797c-0.004,16.83,0.013,33.66-0.022,50.49
		c-0.014,6.68-0.207,6.865-6.618,6.875c-16.996,0.025-33.994-0.098-50.989,0.092c-4.268,0.047-5.904-1.222-5.893-5.66
		c0.147-55.989,0.183-111.979,0.139-167.968c-0.003-3.625,1.033-5.003,4.81-4.992c41.159,0.111,82.32-0.142,123.477,0.189
		c24.291,0.195,48.154,16.935,55.308,37.8c8.791,25.644-2.334,52.678-27.211,66.062c-2.639,1.419-5.285,2.864-8.05,4.001
		c-3.145,1.293-2.963,2.944-1.255,5.358c5.437,7.683,13.408,10.443,22.165,10.506c32.991,0.238,65.985,0.107,98.978,0.113
		c4.267,0,7.986-1.093,9.8-5.426c1.863-4.452,0.21-7.962-2.94-11.264c-7.011-7.349-14.43-14.411-20.628-22.407
		c-9.572-12.353-15.223-26.461-12.069-42.404c4.243-21.45,18.227-34.188,38.713-40.126c4.89-1.417,10.144-2.172,15.235-2.2
		c34.991-0.198,69.985-0.038,104.977-0.229c5.007-0.027,6.272,1.899,6.186,6.481c-0.227,11.994-0.112,23.994-0.127,35.992
		c-0.008,6.26-0.323,6.702-6.82,6.715c-24.162,0.046-48.323,0.004-72.485-0.01c-4.974-0.003-10.42-0.899-12.914,5.039
		c-2.354,5.603,1.603,8.961,4.947,12.508c7.084,7.511,14.4,14.832,21.062,22.706c15.135,17.891,17.831,38.039,8.395,59.251
		c-9.017,20.266-26.076,29.549-47.532,29.736c-51.154,0.446-102.316,0.367-153.472-0.003c-13.597-0.099-25.931-4.419-35.928-14.784
		c-14.671-15.212-29.989-29.799-45.048-44.636C595.026,427.713,593.877,426.844,591.857,425.113z M618.446,388.131
		c0-0.011,0-0.022,0-0.033c6.993,0,13.985,0.049,20.978-0.011c11.713-0.101,18.993-7.689,18.625-19.325
		c-0.323-10.228-7.446-17.148-19.216-17.511c-14.305-0.439-28.632-0.117-42.949-0.211c-2.957-0.02-4.147,1.09-4.104,4.126
		c0.141,9.655,0.169,19.313,0.055,28.969c-0.036,3.088,1.185,4.083,4.136,4.035C603.461,388.051,610.954,388.131,618.446,388.131z"
		/>
	<path fill-rule="evenodd" clip-rule="evenodd" d="M320.767,105.001c42.489-0.003,84.979-0.007,127.469,0.001
		c6.919,0.002,7.004,0.089,7.013,6.922c0.015,11.996-0.186,23.998,0.096,35.988c0.109,4.694-1.152,6.352-6.114,6.298
		c-22.658-0.245-45.321-0.112-67.982-0.085c-7.514,0.009-9.486,1.95-9.489,9.467c-0.015,37.324,0.011,74.648,0.016,111.973
		c0.001,8.109-0.011,8.045-7.947,8.005c-13.996-0.07-27.994-0.212-41.986,0.016c-4.662,0.076-6-1.565-5.984-6.092
		c0.134-37.656,0.069-75.313,0.06-112.972c-0.002-8.775-1.626-10.399-10.54-10.403c-27.493-0.014-54.987,0.063-82.479-0.063
		c-4.625-0.021-8.284,1.066-10.124,5.557c-1.719,4.194,0.39,7.249,3.213,10.211c7.699,8.075,15.445,16.12,22.826,24.483
		c23.949,27.14,15.596,70.398-16.651,84.247c-7.267,3.121-15.763,4.654-23.71,4.714c-56.815,0.421-113.634,0.284-170.452,0.291
		c-8.223,0.001-8.219-0.083-8.213-8.229c0.009-13.331-0.005-26.661,0.028-39.991c0.016-6.285,0.236-6.491,6.453-6.491
		c46.156-0.006,92.311,0.016,138.466-0.043c2.428-0.003,5.137-0.085,7.229-1.116c5.581-2.752,6.293-9.174,1.677-14.293
		c-6.354-7.048-13.157-13.699-19.336-20.892c-28.373-33.024-13.654-73.428,22.397-84.291c6.742-2.032,14.036-2.931,21.1-3.067
		c20.487-0.397,40.987-0.142,61.482-0.143C279.776,105.003,300.271,105.003,320.767,105.001z"/>
	<path fill-rule="evenodd" clip-rule="evenodd" d="M221.094,375.572c2.254-7.424,4.527-14.843,6.76-22.273
		c3.973-13.229,7.825-26.496,12.008-39.658c0.495-1.56,2.728-3.64,4.18-3.659c17.657-0.243,35.32-0.151,52.981-0.111
		c0.788,0.001,1.576,0.329,2.751,0.592c-0.189,1.437-0.179,2.755-0.55,3.956c-13.498,43.716-27.045,87.416-40.554,131.129
		c-3.93,12.718-7.863,25.438-11.582,38.218c-1.004,3.448-2.663,4.65-6.304,4.602c-15.16-0.202-30.327-0.233-45.485,0.016
		c-4.316,0.07-6.099-1.537-7.29-5.525c-7.332-24.549-14.891-49.03-22.396-73.528c-0.657-2.146-1.473-4.242-2.215-6.362
		c-0.46-0.019-0.92-0.037-1.38-0.057c-0.658,1.735-1.399,3.443-1.961,5.208c-8.027,25.213-16.089,50.414-23.971,75.673
		c-1.086,3.479-2.805,4.6-6.399,4.556c-15.161-0.183-30.325-0.156-45.486-0.002c-3.593,0.037-5.313-1.193-6.395-4.688
		c-15.259-49.271-30.645-98.502-46.018-147.737c-2.132-6.829-4.377-13.624-6.527-20.448c-0.482-1.53-0.78-3.118-1.31-5.281
		c2.192-0.153,3.792-0.362,5.393-0.363c17.995-0.014,35.992,0.121,53.985-0.077c3.909-0.044,5.536,1.317,6.592,4.964
		c5.418,18.704,11.071,37.34,16.664,55.993c0.507,1.69,1.167,3.335,2.971,5.08c2.11-7.218,4.25-14.426,6.322-21.653
		c3.853-13.438,7.741-26.867,11.434-40.35c0.8-2.92,2.155-4.042,5.196-4.028c20.828,0.098,41.656,0.13,62.483-0.018
		c3.463-0.024,4.513,1.627,5.393,4.483c5.783,18.767,11.695,37.492,17.567,56.23c0.531,1.695,1.077,3.385,1.615,5.077
		C220.075,375.543,220.584,375.558,221.094,375.572z"/>
	<path fill-rule="evenodd" clip-rule="evenodd" d="M742.141,219.958c0,19.958,0.002,38.445-0.002,56.932
		c-0.001,6.531-0.008,6.549-6.717,6.554c-16.664,0.014-33.328,0.018-49.992,0.009c-6.45-0.004-6.537-0.086-6.539-6.31
		c-0.009-54.824-0.016-109.648-0.006-164.473c0.001-7.652,0.042-7.658,7.835-7.658c39.161,0.001,78.323-0.2,117.481,0.099
		c18.404,0.14,34.53,6.697,47.466,20.097c20.858,21.607,19.672,63.576-14.506,82.853c-2.898,1.634-5.895,3.102-8.886,4.564
		c-4.223,2.065-4.564,3.334-1.43,7.044c5.404,6.394,12.46,9.207,20.728,9.208c25.163,0.003,50.325-0.005,75.488-0.008
		c2,0,4-0.017,5.999,0.013c6.555,0.098,6.744,0.254,6.763,6.784c0.039,13.997-0.083,27.997,0.116,41.991
		c0.061,4.298-1.36,5.859-5.753,5.842c-34.49-0.136-68.983,0.143-103.47-0.208c-13.558-0.139-25.535-4.746-35.363-14.882
		c-14.604-15.062-29.757-29.591-44.688-44.336C745.53,222.951,744.305,221.92,742.141,219.958z M769.021,183.546
		c0-0.038,0-0.076,0.001-0.114c7.488,0,14.99,0.275,22.464-0.064c11.123-0.506,18.247-9.216,17.021-20.273
		c-1.1-9.916-8.084-16.398-19.109-16.671c-14.305-0.354-28.624-0.039-42.938-0.105c-3.168-0.015-4.422,1.17-4.369,4.438
		c0.149,9.319,0.19,18.646-0.033,27.961c-0.092,3.826,1.461,4.941,4.996,4.873C754.373,183.446,761.697,183.546,769.021,183.546z"/>
	<path fill-rule="evenodd" clip-rule="evenodd" d="M469.074,488.297c-7.495,0-14.997-0.179-22.483,0.075
		c-3.773,0.128-5.748-1.054-6.757-4.822c-1.719-6.422-4.061-12.676-5.851-19.081c-0.872-3.119-2.498-4.245-5.683-4.231
		c-22.485,0.099-44.972,0.107-67.457,0.033c-2.816-0.01-4.175,0.991-4.955,3.694c-1.937,6.713-4.24,13.318-6.199,20.023
		c-0.868,2.971-2.305,4.371-5.609,4.346c-16.155-0.124-32.313-0.131-48.469,0.018c-5.203,0.048-4.666-2.478-3.57-6.055
		c9.744-31.794,19.38-63.621,29.089-95.426c7.188-23.544,14.595-47.022,21.534-70.639c1.5-5.107,3.807-6.597,9.032-6.546
		c28.479,0.273,56.962,0.171,85.442,0.092c3.367-0.009,5.479,0.657,6.626,4.339c15.437,49.547,31.021,99.049,46.559,148.564
		c2.19,6.979,4.211,14.015,6.524,20.952c1.123,3.367,0.164,4.674-3.289,4.65c-8.161-0.054-16.323-0.017-24.484-0.017
		C469.074,488.277,469.074,488.287,469.074,488.297z M395.456,342.936c-1.116,2.769-1.731,4.063-2.169,5.415
		c-7.46,23.081-14.899,46.169-22.342,69.256c-1.73,5.368-1.289,6.065,4.423,6.089c13.141,0.051,26.282,0.03,39.423-0.009
		c5.721-0.017,6.146-0.623,4.424-6.095c-5.936-18.854-11.884-37.703-17.854-56.547C399.587,355.448,397.723,349.879,395.456,342.936
		z"/>
	<path fill-rule="evenodd" clip-rule="evenodd" d="M650.712,283.453c-5.318,0-9.601,0.003-13.884,0
		c-12.491-0.01-24.99-0.256-37.472,0.098c-4.313,0.122-5.741-1.605-6.79-5.291c-1.82-6.395-3.908-12.733-6.343-18.915
		c-0.582-1.478-2.966-3.179-4.536-3.192c-22.816-0.21-45.636-0.081-68.454-0.227c-3.454-0.022-4.133,2.053-4.887,4.484
		c-2.017,6.508-3.867,13.074-6.154,19.485c-0.519,1.454-2.525,3.372-3.867,3.388c-17.483,0.204-34.972,0.107-52.458,0.057
		c-0.461-0.002-0.92-0.34-2.05-0.785c0.804-3.072,1.514-6.23,2.455-9.317c16.587-54.419,33.224-108.823,49.759-163.258
		c1.085-3.575,2.804-5.088,6.696-5.068c28.98,0.146,57.963,0.175,86.942,0.017c4.291-0.022,6.125,1.569,7.357,5.534
		c15.549,50.034,31.239,100.024,46.905,150.022c1.791,5.716,3.68,11.4,5.458,17.12C649.87,279.144,650.112,280.757,650.712,283.453z
		 M573.397,218.27c-8.242-26.599-16.254-52.456-24.266-78.314c-1.835,1.314-2.466,2.443-2.84,3.651
		c-7.278,23.526-14.487,47.074-21.82,70.584c-1.12,3.592-0.172,4.834,3.565,4.804c13.662-0.112,27.326-0.036,40.989-0.071
		C570.137,218.92,571.246,218.602,573.397,218.27z"/>
</g>
</svg>
